<?xml version="1.0" standalone="no"?>
<!DOCTYPE svg PUBLIC "-//W3C//DTD SVG 20010904//EN"
 "http://www.w3.org/TR/2001/REC-SVG-20010904/DTD/svg10.dtd">
<svg version="1.0" xmlns="http://www.w3.org/2000/svg"
 width="560.000000pt" height="560.000000pt" viewBox="0 0 560.000000 560.000000"
 preserveAspectRatio="xMidYMid meet">
<metadata>
Created by potrace 1.14, written by Peter Selinger 2001-2017
</metadata>
<g transform="translate(0.000000,560.000000) scale(0.100000,-0.100000)"
fill="#000000" stroke="none">
<path d="M0 2800 l0 -2800 2800 0 2800 0 0 2800 0 2800 -2800 0 -2800 0 0
-2800z m3170 2680 c458 -80 859 -293 1177 -624 67 -69 147 -160 177 -201 214
-284 358 -630 411 -990 19 -129 22 -434 5 -570 -27 -219 -112 -498 -215 -700
-326 -643 -954 -1082 -1668 -1166 -130 -15 -494 -6 -604 14 -143 27 -312 75
-432 123 -621 246 -1089 761 -1276 1404 -189 653 -56 1350 364 1905 67 89 275
299 366 370 236 183 470 303 751 383 119 34 186 47 399 76 17 2 118 3 225 1
144 -2 228 -9 320 -25z m143 -4735 c5 -27 26 -143 48 -256 21 -113 39 -215 39
-227 0 -14 -9 -27 -25 -34 -37 -17 -51 3 -67 92 l-14 75 -35 -1 c-68 -2 -87
-11 -100 -51 -24 -76 -48 -113 -73 -113 -59 0 -55 19 84 395 57 155 72 177
109 173 23 -3 27 -9 34 -53z m-977 -12 c-3 -21 -9 -57 -13 -80 l-6 -43 55 0
c68 0 89 -17 65 -54 -12 -17 -28 -25 -62 -28 -26 -3 -51 -10 -56 -15 -5 -5
-16 -65 -24 -134 -22 -179 -38 -213 -89 -193 -20 8 -20 24 -1 139 8 50 15 109
15 132 l0 42 -52 3 c-49 3 -53 5 -56 29 -4 37 22 59 68 59 47 0 56 13 66 91
10 76 18 89 61 89 l36 0 -7 -37z m1650 5 c-4 -18 -10 -54 -13 -80 l-6 -48 55
0 c68 0 89 -17 65 -54 -12 -17 -28 -25 -62 -28 -26 -3 -51 -10 -56 -15 -5 -5
-16 -63 -25 -129 -21 -166 -29 -192 -60 -200 -45 -11 -49 5 -31 128 10 62 17
130 17 150 l0 37 -52 3 c-50 3 -53 4 -56 33 -5 37 19 55 70 55 44 0 53 12 63
90 10 77 19 90 62 90 35 0 35 -1 29 -32z m-2138 6 c15 -4 22 -14 22 -30 0 -27
-19 -39 -80 -49 -101 -17 -167 -142 -126 -240 24 -57 53 -69 155 -61 93 8 108
3 97 -32 -19 -59 -172 -79 -256 -32 -71 40 -90 77 -90 175 0 72 4 90 31 144
49 98 152 150 247 125z m240 -66 c4 -30 -26 -53 -57 -43 -24 7 -31 24 -20 53
7 19 15 23 41 20 27 -2 34 -8 36 -30z m1460 -95 c2 -24 5 -43 8 -43 3 0 21 8
42 19 77 39 142 35 142 -8 0 -25 -18 -39 -76 -56 -27 -8 -63 -23 -80 -34 -30
-18 -32 -23 -39 -108 -8 -95 -16 -113 -49 -113 -45 0 -46 6 -35 178 12 192 18
215 57 210 24 -3 27 -7 30 -45z m-759 18 c32 -21 -15 -192 -104 -377 -73 -150
-142 -210 -178 -152 -9 13 -3 25 26 57 44 49 67 92 67 125 0 14 -16 53 -36 87
-45 76 -84 171 -84 203 0 51 62 77 79 34 5 -13 21 -58 36 -101 15 -43 35 -87
45 -99 17 -21 18 -20 49 83 44 142 61 165 100 140z m-726 -33 c16 -12 16 -18
2 -83 -8 -38 -15 -100 -15 -137 0 -73 -19 -108 -60 -108 -35 0 -39 28 -20 168
21 159 43 196 93 160z"/>
<path d="M2665 5413 c-525 -46 -972 -255 -1332 -624 -155 -159 -268 -320 -366
-520 -145 -295 -211 -580 -210 -909 0 -248 47 -512 128 -721 259 -664 800
-1129 1494 -1284 582 -130 1232 21 1701 395 104 83 296 279 372 380 216 287
357 645 399 1009 19 168 7 447 -26 611 -95 477 -331 878 -700 1188 -248 208
-574 369 -878 432 -187 39 -426 57 -582 43z m275 -727 c114 -32 255 -98 355
-166 109 -76 110 -77 69 -124 l-33 -39 -73 56 c-136 103 -254 155 -421 188
-396 77 -789 -102 -1037 -473 -105 -157 -166 -312 -199 -508 -78 -461 62 -913
375 -1210 123 -117 234 -183 407 -242 89 -31 98 -32 262 -33 150 0 177 2 227
22 112 42 164 104 193 227 13 54 16 120 14 310 -1 215 0 246 17 290 25 65 75
105 141 113 76 8 115 -3 166 -47 37 -33 51 -57 82 -137 44 -113 69 -143 119
-143 97 0 140 165 140 540 0 194 -3 239 -22 327 -12 55 -22 105 -22 110 0 9
98 39 104 32 2 -2 14 -56 27 -119 22 -104 24 -138 23 -365 -1 -231 -3 -259
-27 -361 -36 -158 -78 -229 -153 -260 -69 -29 -170 -9 -215 42 -21 24 -61 105
-85 172 -24 70 -54 97 -105 96 -83 -3 -93 -41 -84 -309 4 -125 2 -227 -4 -272
-43 -292 -251 -426 -610 -392 -359 34 -662 227 -876 557 -254 394 -297 937
-109 1384 166 392 478 664 864 749 127 28 359 21 490 -15z m1110 -93 c91 -90
130 -135 130 -150 0 -28 -13 -43 -705 -761 -452 -471 -564 -582 -585 -582 -35
0 -291 244 -290 278 0 16 34 59 108 135 59 62 343 358 631 660 450 470 528
547 552 547 23 0 54 -25 159 -127z m-1195 -172 c242 -111 123 -465 -137 -410
-117 25 -198 167 -157 276 46 123 182 186 294 134z m-517 -203 c96 -29 154
-140 131 -250 -9 -42 -22 -62 -63 -103 -73 -73 -151 -85 -245 -39 -182 91
-146 365 52 403 43 9 69 6 125 -11z m-240 -494 c175 -73 175 -325 0 -398 -57
-24 -126 -20 -186 10 -63 31 -87 60 -107 128 -42 140 58 276 202 276 30 0 70
-7 91 -16z m586 -541 c77 -76 145 -144 150 -152 15 -25 0 -116 -31 -183 -55
-118 -136 -188 -269 -235 -73 -25 -91 -27 -234 -27 -281 0 -380 44 -283 127
140 120 151 139 184 304 12 59 32 129 44 154 48 93 137 145 254 148 43 1 45
-1 185 -136z"/>
<path d="M3311 3984 l-583 -606 78 -73 79 -73 56 56 c31 31 271 282 534 557
263 275 499 521 524 548 l46 47 -76 76 -75 75 -583 -607z"/>
<path d="M2707 4309 c-15 -11 -32 -38 -38 -59 -16 -53 12 -109 64 -129 45 -17
81 -8 118 29 23 23 29 37 29 73 0 37 -6 51 -31 76 -38 39 -101 43 -142 10z"/>
<path d="M2204 4111 c-93 -57 -52 -201 58 -201 32 0 47 7 74 34 56 56 44 135
-26 171 -39 20 -69 19 -106 -4z"/>
<path d="M1973 3629 c-93 -26 -98 -167 -7 -205 46 -19 89 -8 124 33 42 47 41
92 -2 137 -37 38 -68 48 -115 35z"/>
<path d="M2437 3206 c-74 -27 -87 -49 -126 -225 -33 -143 -46 -174 -98 -232
-20 -22 -33 -42 -29 -46 3 -3 59 -6 123 -5 159 1 230 23 309 95 54 49 114 148
114 188 0 15 -231 239 -247 239 -4 -1 -25 -7 -46 -14z"/>
<path d="M3237 593 c-3 -10 -12 -42 -20 -70 l-15 -53 35 0 36 0 -6 61 c-6 64
-20 94 -30 62z"/>
</g>
</svg>
